<svg width="30" height="30" viewBox="0 0 30 30" fill="none" xmlns="http://www.w3.org/2000/svg">
<path d="M22.8754 7.13789C22.3879 6.65039 21.6004 6.65039 21.1129 7.13789L15.0004 13.2379L8.88789 7.12539C8.40039 6.63789 7.61289 6.63789 7.12539 7.12539C6.63789 7.61289 6.63789 8.40039 7.12539 8.88789L13.2379 15.0004L7.12539 21.1129C6.63789 21.6004 6.63789 22.3879 7.12539 22.8754C7.61289 23.3629 8.40039 23.3629 8.88789 22.8754L15.0004 16.7629L21.1129 22.8754C21.6004 23.3629 22.3879 23.3629 22.8754 22.8754C23.3629 22.3879 23.3629 21.6004 22.8754 21.1129L16.7629 15.0004L22.8754 8.88789C23.3504 8.41289 23.3504 7.61289 22.8754 7.13789V7.13789Z" fill="#021B1C"/>
</svg>
