<svg width="1460" height="1113" viewBox="0 0 1460 1113" fill="none" xmlns="http://www.w3.org/2000/svg">
<rect width="1460" height="1113" fill="#0065FF"/>
<path d="M593.211 574.346C593.923 584.825 602.721 591.642 615.919 591.642C629.451 591.642 638.25 584.614 638.25 573.378C638.25 564.794 633.264 559.744 620.653 556.966L613.949 555.493C605.696 553.684 602.47 550.401 602.47 545.604C602.47 539.418 608.293 535.715 615.835 535.715C623.711 535.715 628.949 539.797 629.619 546.446H637.16C636.825 536.136 628.111 528.897 616.044 528.897C603.517 528.897 594.719 535.925 594.719 545.941C594.719 554.568 599.956 560.08 612.064 562.732L618.768 564.204C627.147 566.056 630.499 569.423 630.499 574.515C630.499 580.49 624.549 584.825 616.338 584.825C607.665 584.825 601.632 580.869 600.752 574.346H593.211Z" fill="white"/>
<path d="M690.717 590.632H698.636L676.347 529.907H668.889L646.6 590.632H654.518L660.593 573.252H684.642L690.717 590.632ZM672.492 539.123H672.743L682.422 566.814H662.814L672.492 539.123Z" fill="white"/>
<path d="M746.578 583.815H717.418V529.907H709.877V590.632H746.578V583.815Z" fill="white"/>
<path d="M796.658 583.815H766.743V562.942H795.107V556.209H766.743V536.725H796.658V529.907H759.202V590.632H796.658V583.815Z" fill="white"/>
<path d="M808.024 574.346C808.736 584.825 817.535 591.642 830.732 591.642C844.265 591.642 853.063 584.614 853.063 573.378C853.063 564.794 848.078 559.744 835.467 556.966L828.763 555.493C820.509 553.684 817.283 550.401 817.283 545.604C817.283 539.418 823.107 535.715 830.649 535.715C838.525 535.715 843.762 539.797 844.433 546.446H851.974C851.639 536.136 842.924 528.897 830.858 528.897C818.331 528.897 809.533 535.925 809.533 545.941C809.533 554.568 814.77 560.08 826.878 562.732L833.581 564.204C841.961 566.056 845.312 569.423 845.312 574.515C845.312 580.49 839.363 584.825 831.151 584.825C822.479 584.825 816.445 580.869 815.566 574.346H808.024Z" fill="white"/>
<path d="M939.857 590.632V529.907H927.204V554.568H899.971V529.907H887.318V590.632H899.971V565.046H927.204V590.632H939.857Z" fill="white"/>
<path d="M994.294 580.112H966.893V564.794H992.743V555.03H966.893V540.386H994.294V529.907H954.24V590.632H994.294V580.112Z" fill="white"/>
<path d="M1020.41 539.839H1031.18C1037.46 539.839 1041.4 543.626 1041.4 549.518C1041.4 555.535 1037.67 559.197 1031.3 559.197H1020.41V539.839ZM1020.41 568.413H1030.55L1041.82 590.632H1056.15L1043.41 566.519C1050.36 563.784 1054.39 557.05 1054.39 549.265C1054.39 537.272 1046.43 529.907 1032.52 529.907H1007.76V590.632H1020.41V568.413Z" fill="white"/>
<path d="M1094.33 528.855C1076.39 528.855 1065.17 540.933 1065.17 560.291C1065.17 579.607 1076.39 591.684 1094.33 591.684C1112.22 591.684 1123.49 579.607 1123.49 560.291C1123.49 540.933 1112.22 528.855 1094.33 528.855ZM1094.33 539.46C1104.21 539.46 1110.54 547.54 1110.54 560.291C1110.54 573 1104.21 581.037 1094.33 581.037C1084.4 581.037 1078.07 573 1078.07 560.291C1078.07 547.54 1084.44 539.46 1094.33 539.46Z" fill="white"/>
<path fill-rule="evenodd" clip-rule="evenodd" d="M457.5 461C404.757 461 362 503.757 362 556.5C362 609.243 404.757 652 457.5 652C510.243 652 553 609.243 553 556.5C553 503.757 510.243 461 457.5 461ZM457.5 506.237C429.74 506.237 407.237 528.74 407.237 556.5C407.237 584.26 429.74 606.763 457.5 606.763C485.259 606.763 507.763 584.26 507.763 556.5C507.763 528.74 485.259 506.237 457.5 506.237Z" fill="#EEEEEE"/>
</svg>
