<svg width="53" height="24" viewBox="0 0 53 24" fill="none" xmlns="http://www.w3.org/2000/svg">
<path fill-rule="evenodd" clip-rule="evenodd" d="M14.86 18.1L26.16 3.45H26.28L22.32 18.36C22.12 19.1 21.91 19.7 21.69 20.16C21.49 20.62 21.24 20.98 20.94 21.24C20.66 21.5 20.33 21.68 19.95 21.78C19.57 21.86 19.11 21.9 18.57 21.9L18.24 23.1H27.81L27.86 22.9333V23.1H40.37C42.23 23.1 43.93 22.83 45.47 22.29C47.03 21.73 48.36 20.96 49.46 19.98C50.58 19 51.45 17.83 52.07 16.47C52.69 15.09 53 13.58 53 11.94C53 10.22 52.67 8.63 52.01 7.17C51.35 5.71 50.43 4.45 49.25 3.39C48.07 2.33 46.67 1.5 45.05 0.900001C43.43 0.3 41.66 0 39.74 0H26.46L16.15 12.88H16.03L12.9 0H5.7L5.37 1.2C6.45 1.2 7.21 1.29 7.65 1.47C8.11 1.63 8.34 2.02 8.34 2.64C8.34 3.18 8.19 4 7.89 5.1L4.38 18.36C4.1 19.38 3.59 20.23 2.85 20.91C2.11 21.57 1.27 21.9 0.33 21.9L0 23.1H8.28L8.64 21.9C7.86 21.88 7.23 21.67 6.75 21.27C6.29 20.85 6.06 20.22 6.06 19.38C6.06 19.18 6.08 18.97 6.12 18.75C6.16 18.53 6.21 18.3 6.27 18.06L10.11 3.45H10.23L13.57 18.1H14.86ZM30.411 1.78516C30.2987 1.88427 30.1917 1.99922 30.09 2.13C29.83 2.49 29.59 2.99 29.37 3.63C29.15 4.27 28.91 5.1 28.65 6.12L25.5 18.06C25.26 18.94 25.14 19.64 25.14 20.16C25.14 20.84 25.37 21.3 25.83 21.54C26.2731 21.7616 26.9719 21.8808 27.9263 21.8979C28.5556 21.8766 29.0635 21.8273 29.45 21.75C29.87 21.65 30.19 21.48 30.41 21.24C30.65 20.98 30.81 20.64 30.89 20.22C30.97 19.78 31.01 19.2 31.01 18.48V4.62C31.01 3.92 30.98 3.36 30.92 2.94C30.86 2.5 30.73 2.16 30.53 1.92C30.4931 1.87198 30.4534 1.82704 30.411 1.78516ZM35.42 2.34C35.42 2 35.59 1.83 35.93 1.83H39.68C40.96 1.83 42.11 2.06 43.13 2.52C44.17 2.98 45.05 3.65 45.77 4.53C46.49 5.39 47.04 6.45 47.42 7.71C47.8 8.97 47.99 10.4 47.99 12C47.99 15.02 47.28 17.32 45.86 18.9C44.46 20.48 42.45 21.27 39.83 21.27C38.33 21.27 37.22 20.99 36.5 20.43C35.78 19.87 35.42 19.01 35.42 17.85V2.34Z" fill="#FF472E"/>
</svg>
